#N canvas 272 97 964 676 10;
#X obj 92 525 dac~;
#N canvas 0 50 450 250 (subpatch) 0;
#X array AscendingPlucked 156000 float 2;
#X coords 0 1 156000 -1 200 140 1;
#X restore 512 254 graph;
#X obj 568 66 loadbang;
#X obj 569 123 soundfiler;
#X msg 567 97 read -resize AscendingPluckViolin.wav AscendingPlucked
;
#X obj 93 407 tabplay~ AscendingPlucked;
#X msg 79 330 bang;
#X floatatom 565 149 10 0 0 0 - - -, f 10;
#X obj 138 244 random 156000;
#X floatatom 60 259 10 0 0 0 - - -, f 10;
#X obj 136 206 bng 15 250 50 0 empty empty empty 17 7 0 10 -262144
-1 -1;
#X floatatom 183 433 5 0 0 0 - - -, f 5;
#X obj 137 100 tgl 15 0 empty empty empty 17 7 0 10 -262144 -1 -1 1
1;
#X obj 128 175 metro 200;
#X floatatom 296 127 5 0 0 0 - - -, f 5;
#X msg 294 100 200;
#X obj 293 74 loadbang;
#X obj 93 442 lop~ 800;
#X obj 296 153 * 2;
#X obj 246 240 random 360;
#X obj 256 331 send randomCircleCoordinate;
#X floatatom 303 279 5 0 0 0 - - -, f 5;
#X obj 246 216 metro 400;
#X obj 278 427 moses 100;
#X floatatom 278 485 5 0 0 0 - - -, f 5;
#X obj 137 65 loadbang;
#X obj 277 390 receive planeCoordinateZ;
#X obj 412 46 receive planeCoordinateX;
#X obj 277 512 + 0.5;
#X obj 94 474 *~ 0.5;
#X obj 278 456 * 0.03;
#X msg 139 344 \$1 6000;
#X obj 146 291 - 6000;
#X connect 2 0 4 0;
#X connect 3 0 7 0;
#X connect 4 0 3 0;
#X connect 5 0 17 0;
#X connect 6 0 5 0;
#X connect 8 0 9 0;
#X connect 8 0 32 0;
#X connect 10 0 8 0;
#X connect 11 0 17 1;
#X connect 12 0 13 0;
#X connect 12 0 22 0;
#X connect 13 0 10 0;
#X connect 14 0 13 1;
#X connect 14 0 18 0;
#X connect 15 0 14 0;
#X connect 16 0 15 0;
#X connect 17 0 29 0;
#X connect 18 0 22 1;
#X connect 19 0 20 0;
#X connect 19 0 21 0;
#X connect 22 0 19 0;
#X connect 23 0 30 0;
#X connect 24 0 28 0;
#X connect 25 0 12 0;
#X connect 26 0 23 0;
#X connect 28 0 29 1;
#X connect 29 0 0 0;
#X connect 29 0 0 1;
#X connect 30 0 24 0;
#X connect 31 0 5 0;
#X connect 32 0 31 0;
