#N canvas 519 93 587 431 10;
#X msg 286 110 \$1 5;
#X obj 267 275 *~ 0.1;
#X obj 267 320 dac~;
#X obj 286 86 receive emission;
#X obj 227 208 osc~ 440;
#X obj 286 134 line;
#X obj 403 150 receive proximityToObj;
#X obj 303 206 * 1;
#X obj 286 158 * 0.1;
#X connect 0 0 5 0;
#X connect 1 0 2 0;
#X connect 1 0 2 1;
#X connect 3 0 0 0;
#X connect 4 0 1 0;
#X connect 5 0 8 0;
#X connect 6 0 7 1;
#X connect 7 0 1 1;
#X connect 8 0 7 0;
