#N canvas -9 -9 1920 976 10;
#X obj 52 222 + 0.1;
#X obj 123 220 + 0.2;
#X obj 199 216 - 0.1;
#X obj 268 215 - 0.2;
#X msg 52 169 660;
#X obj 199 185 / 2;
#X obj 52 242 osc~ 660;
#X obj 123 242 osc~ 660;
#X obj 199 241 osc~ 330;
#X obj 268 241 osc~ 330;
#X obj 51 296 +~;
#X obj 52 324 +~;
#X obj 52 350 +~;
#X obj 182 396 +~;
#X obj 181 513 hip~ 5;
#X obj 183 571 dac~;
#X obj 445 379 *~;
#X obj 444 342 osc~;
#X floatatom 558 281 5 0 0 0 - - -;
#X obj 557 339 line 0 5;
#X floatatom 557 364 5 0 0 0 - - -;
#X msg 674 203 1;
#X msg 522 170 0;
#X obj 531 92 metro 5000;
#X obj 531 67 tgl 15 0 empty empty empty 17 7 0 10 -262144 -1 -1 1
1;
#X obj 531 116 tgl 15 0 empty empty empty 17 7 0 10 -262144 -1 -1 1
1;
#X obj 558 131 sel 0 1;
#X obj 52 138 bng 15 250 50 0 empty empty empty 17 7 0 10 -262144 -1
-1;
#X msg 947 95 \; pd dsp 1;
#X obj 947 70 loadbang;
#X obj 557 308 pack \$1 20;
#X msg 558 167 7 5000;
#X msg 613 167 27 5000;
#X floatatom 444 320 5 0 0 0 - - -;
#X text 709 74 modulation on the right;
#X text 89 72 synth with beating on the left;
#X obj 52 109 loadbang;
#X obj 548 15 loadbang;
#X obj 378 202 receive f;
#X floatatom 375 244 5 0 20 0 - - -;
#X obj 532 47 t b b;
#X obj 558 219 line 7 5000;
#X msg 662 317 20;
#X obj 182 536 *~ 0.3;
#X msg 444 294 4;
#X obj 377 295 + 4;
#X obj 261 455 + 0.3;
#X obj 249 422 * 0.03;
#X obj 374 273 * 4;
#X obj 113 377 *~ 0.5;
#X obj 328 350 sel 20;
#X obj 332 476 line 0.1 4000;
#X obj 331 371 bng 15 250 50 0 empty empty empty 17 7 0 10 -262144
-1 -1;
#X obj 330 403 t b b;
#X msg 456 441 5;
#X msg 293 420 0;
#X floatatom 306 518 5 0 0 0 - - -;
#X msg 328 433 0.1 4000;
#X msg 394 443 0.3 4000;
#X obj 420 404 loadbang;
#X connect 0 0 6 0;
#X connect 1 0 7 0;
#X connect 2 0 8 0;
#X connect 3 0 9 0;
#X connect 4 0 0 0;
#X connect 4 0 1 0;
#X connect 4 0 5 0;
#X connect 5 0 2 0;
#X connect 5 0 3 0;
#X connect 6 0 10 0;
#X connect 7 0 10 1;
#X connect 8 0 11 1;
#X connect 9 0 12 1;
#X connect 10 0 11 0;
#X connect 11 0 12 0;
#X connect 12 0 49 0;
#X connect 13 0 14 0;
#X connect 14 0 43 0;
#X connect 16 0 13 1;
#X connect 17 0 16 0;
#X connect 18 0 30 0;
#X connect 19 0 20 0;
#X connect 20 0 16 1;
#X connect 21 0 41 2;
#X connect 22 0 41 0;
#X connect 23 0 25 0;
#X connect 24 0 23 0;
#X connect 25 0 26 0;
#X connect 26 0 31 0;
#X connect 26 1 32 0;
#X connect 27 0 4 0;
#X connect 29 0 28 0;
#X connect 30 0 19 0;
#X connect 31 0 41 0;
#X connect 32 0 41 0;
#X connect 33 0 17 0;
#X connect 36 0 27 0;
#X connect 37 0 40 0;
#X connect 38 0 39 0;
#X connect 39 0 48 0;
#X connect 39 0 50 0;
#X connect 40 0 24 0;
#X connect 40 1 21 0;
#X connect 40 1 42 0;
#X connect 40 1 44 0;
#X connect 41 0 18 0;
#X connect 42 0 19 2;
#X connect 43 0 15 0;
#X connect 43 0 15 1;
#X connect 44 0 33 0;
#X connect 45 0 33 0;
#X connect 46 0 43 1;
#X connect 46 0 56 0;
#X connect 47 0 46 0;
#X connect 48 0 45 0;
#X connect 49 0 13 1;
#X connect 50 0 52 0;
#X connect 50 1 47 0;
#X connect 51 0 43 1;
#X connect 51 0 56 0;
#X connect 52 0 53 0;
#X connect 52 0 55 0;
#X connect 53 0 57 0;
#X connect 53 1 54 0;
#X connect 54 0 51 2;
#X connect 55 0 46 1;
#X connect 57 0 51 0;
#X connect 58 0 51 0;
#X connect 59 0 58 0;
#X connect 59 0 54 0;
