#N canvas 333 194 605 468 10;
#X floatatom 74 277 10 0 0 0 - - -, f 10;
#X obj 61 68 metro 1000;
#X obj 61 100 tgl 15 0 empty empty empty 17 7 0 10 -262144 -1 -1 0
1;
#X obj 61 37 tgl 15 0 empty empty empty 17 7 0 10 -262144 -1 -1 1 1
;
#X obj 61 137 sel 0;
#X floatatom 74 200 5 0 0 0 - - -, f 5;
#X obj 106 137 sel 1;
#X msg 74 228 \$1 500;
#X obj 61 10 loadbang;
#X obj 25 370 send oscillatingFloat;
#X obj 224 70 metro 3000;
#X obj 224 52 tgl 15 0 empty empty empty 17 7 0 10 -262144 -1 -1 1
1;
#X obj 224 102 bng 15 250 50 0 empty empty empty 17 7 0 10 -262144
-1 -1;
#X obj 224 130 send bangBang;
#X obj 74 254 line 0 1000 100;
#X floatatom 152 212 5 0 0 0 - - -, f 5;
#X floatatom 191 220 5 0 0 0 - - -, f 5;
#X msg 105 162 1 500;
#X msg 61 163 5 500;
#X obj 416 275 phasor~;
#X obj 416 205 * 40;
#X obj 416 237 + 400;
#X obj 418 354 dac~;
#X obj 422 321 *~ 0.5;
#X obj 256 366 noteout 2 0 1;
#X connect 0 0 9 0;
#X connect 0 0 20 0;
#X connect 0 0 24 0;
#X connect 1 0 2 0;
#X connect 2 0 4 0;
#X connect 2 0 6 0;
#X connect 3 0 1 0;
#X connect 4 0 18 0;
#X connect 5 0 7 0;
#X connect 6 0 17 0;
#X connect 7 0 14 0;
#X connect 8 0 3 0;
#X connect 8 0 11 0;
#X connect 8 0 16 0;
#X connect 10 0 12 0;
#X connect 11 0 10 0;
#X connect 12 0 13 0;
#X connect 14 0 0 0;
#X connect 15 0 14 1;
#X connect 16 0 14 2;
#X connect 17 0 5 0;
#X connect 18 0 5 0;
#X connect 19 0 23 0;
#X connect 20 0 21 0;
#X connect 21 0 19 0;
#X connect 23 0 22 0;
#X connect 23 0 22 1;
