#N canvas 1028 192 450 300 10;
#X floatatom 129 210 5 0 0 0 - - -, f 5;
#X msg 221 56 send 5;
#X obj 146 13 loadbang;
#X obj 146 162 netsend;
#X msg 239 120 disconnect;
#X obj 203 210 print message;
#X obj 141 32 t b b;
#X msg 61 80 connect localhost 9001;
#X obj 345 172 netreceive 9001;
#X obj 340 214 print TCP;
#X connect 1 0 3 0;
#X connect 2 0 6 0;
#X connect 3 0 0 0;
#X connect 3 1 5 0;
#X connect 4 0 3 0;
#X connect 6 0 1 0;
#X connect 6 1 7 0;
#X connect 7 0 3 0;
#X connect 8 0 9 0;
