#N canvas -2409 -9 2400 1246 10;
#X obj 35 147 *~;
#X obj 148 149 line~;
#X msg 235 108 0.1 100;
#X msg 251 129 0 100;
#X text 297 109 on;
#X text 297 129 off;
#X text 186 149 envelope;
#X text 188 158 generator;
#X text 216 86 amplitude controls:;
#X obj 159 105 \$1 100;
#X obj 37 105 inlet~;
#X text 52 76 signal in;
#X text 47 198 signal in;
#X obj 163 62 inlet;
#X text 159 41 valume control;
#X obj 32 227 outlet~;
#X connect 0 0 15 0;
#X connect 1 0 0 1;
#X connect 2 0 1 0;
#X connect 3 0 1 0;
#X connect 9 0 1 0;
#X connect 10 0 0 0;
#X connect 13 0 9 0;
