#N canvas 586 82 1238 807 10;
#X declare -lib mrpeach;
#X obj 46 268 tgl 15 0 empty empty empty 17 7 0 10 -262144 -1 -1 1
1;
#X msg 218 205 disconnect;
#X text 290 205 obvious;
#X text 215 146 or click me if the patches are \; on the same computer.
;
#X text 73 268 connected!!;
#X obj 46 91 tgl 15 0 empty empty empty 17 7 0 10 -262144 -1 -1 0 1
;
#X obj 46 49 metro 1000;
#X obj 46 23 tgl 15 0 empty empty empty 17 7 0 10 -262144 -1 -1 0 1
;
#X obj 466 39 import mrpeach;
#X obj 468 161 unpackOSC;
#X obj 46 239 udpsend;
#X obj 468 252 print;
#X text 186 48 comment;
#X text 76 15 send a message every second to the address /example/1
at port 7000;
#X text 464 17 import the OSC patches;
#X text 450 109 receive the messages sent by unity;
#X obj 46 176 packOSC;
#X obj 468 134 udpreceive 8000;
#X msg 216 175 connect localhost 8001;
#X msg 46 122 send /float/puredata \$1;
#X obj 468 215 routeOSC /float/unity;
#X obj 216 111 loadbang;
#N canvas 0 0 450 300 (subpatch) 0;
#X array ennemysample1 100 float 3;
#A 0 0 0 0 0 0 0 0 0 0 0 0 0 0 0 0 0 0 0 0 0 0 0 0 0 0 0 0 0 0 0 0
0 0 0 0 0 0 0 0 0 0 0 0 0 0 0 0 0 0 0 0 0 0 0 0 0 0 0 0 0 0 0 0 0 0
0 0 0 0 0 0 0 0 0 0 0 0 0 0 0 0 0 0 0 0 0 0 0 0 0 0 0 0 0 0 0 0 0 0
0;
#X coords 0 1 99 -1 200 140 1;
#X restore 826 174 graph;
#X msg 462 486 read -resize DripSound.wav ennemysample1;
#X obj 462 515 soundfiler;
#X floatatom 462 542 5 0 0 0 - - -;
#X connect 1 0 10 0;
#X connect 5 0 19 0;
#X connect 6 0 5 0;
#X connect 7 0 6 0;
#X connect 9 0 20 0;
#X connect 10 0 0 0;
#X connect 16 0 10 0;
#X connect 17 0 9 0;
#X connect 18 0 10 0;
#X connect 19 0 16 0;
#X connect 20 0 11 0;
#X connect 21 0 18 0;
#X connect 23 0 24 0;
#X connect 24 0 25 0;
