#N canvas -9 -9 1920 976 10;
#X msg 1126 117 \; pd dsp 1;
#X obj 1126 92 loadbang;
#X obj 183 511 dac~;
#X obj 121 233 + 0.1;
#X obj 45 365 +~;
#X floatatom 157 233 5 0 1 0 - - -;
#X floatatom 258 235 5 0 1 0 - - -;
#X obj 45 297 +~;
#X obj 222 234 + 0.2;
#X obj 46 266 phasor~ 440;
#X obj 119 266 phasor~ 440;
#X obj 192 266 phasor~ 440;
#X obj 394 239 + 0.1;
#X obj 336 358 +~;
#X floatatom 431 239 5 0 1 0 - - -;
#X floatatom 502 238 5 0 1 0 - - -;
#X obj 336 299 +~;
#X obj 466 238 + 0.2;
#X obj 335 266 osc~ 440;
#X obj 393 266 osc~ 440;
#X obj 450 265 osc~ 440;
#X floatatom 46 121 5 0 0 0 - - -;
#X msg 46 214 \$1;
#X msg 336 211 \$1;
#X obj 158 195 * 3;
#X obj 236 88 receive numberOfParticles;
#X obj 46 156 * 1;
#X floatatom 231 121 5 0 0 0 - - -;
#X obj 46 57 loadbang;
#X msg 46 89 50;
#X obj 45 393 *~ 0.3;
#X obj 335 396 *~ 0.6;
#X connect 1 0 0 0;
#X connect 3 0 10 0;
#X connect 4 0 30 0;
#X connect 5 0 3 1;
#X connect 6 0 8 1;
#X connect 7 0 4 0;
#X connect 8 0 11 0;
#X connect 9 0 7 0;
#X connect 10 0 7 1;
#X connect 11 0 4 1;
#X connect 12 0 19 0;
#X connect 13 0 31 0;
#X connect 14 0 12 1;
#X connect 15 0 17 1;
#X connect 16 0 13 0;
#X connect 17 0 20 0;
#X connect 18 0 16 0;
#X connect 19 0 16 1;
#X connect 20 0 13 1;
#X connect 21 0 26 0;
#X connect 22 0 3 0;
#X connect 22 0 8 0;
#X connect 22 0 9 0;
#X connect 23 0 12 0;
#X connect 23 0 17 0;
#X connect 23 0 18 0;
#X connect 24 0 23 0;
#X connect 25 0 27 0;
#X connect 26 0 22 0;
#X connect 26 0 24 0;
#X connect 28 0 29 0;
#X connect 29 0 21 0;
#X connect 30 0 2 0;
#X connect 31 0 2 1;
